<svg xmlns="http://www.w3.org/2000/svg" xmlns:xlink="http://www.w3.org/1999/xlink" xml:space="preserve" viewBox="0 0 129.542 32"><defs><path id="a" d="M28.122 16.418a.523.523 0 0 0 .194-.194l.015-.032a.526.526 0 0 0 .032-.083l.01-.036a.548.548 0 0 0 0-.235l-.01-.036a.526.526 0 0 0-.032-.083l-.015-.032a.516.516 0 0 0-.194-.194L10.193 5.317.946 15.954l9.248 10.638 17.928-10.174z"/></defs><clipPath id="b"><use xlink:href="#a" overflow="visible"/></clipPath><g clip-path="url(#b)"><defs><path id="c" d="M-.167 0h129.533v32H-.167z"/></defs></g><defs><path id="d" d="M37.838 10.771c2.068 0 2.752 1.367 2.752 1.367h.037s-.037-.243-.037-.543V8.037c0-.506.258-.787.757-.787h.812c.499 0 .757.281.757.787v11.725c0 .524-.258.786-.757.786h-.683c-.499 0-.757-.243-.757-.711v-.375c0-.188.037-.337.037-.337h-.036s-.794 1.648-2.956 1.648c-2.548 0-4.192-2.042-4.192-5.001 0-3.035 1.773-5.001 4.266-5.001m.444 7.998c1.219 0 2.364-.898 2.364-3.015 0-1.48-.757-2.941-2.346-2.941-1.274 0-2.364 1.068-2.364 2.96 0 1.816.96 2.996 2.346 2.996"/></defs><clipPath id="e"><use xlink:href="#d" overflow="visible"/></clipPath><g clip-path="url(#e)"><defs><path id="f" d="M-.167 0h129.533v32H-.167z"/></defs><clipPath id="g"><use xlink:href="#f" overflow="visible"/></clipPath><path clip-path="url(#g)" fill="#e34644" d="M28.572 2.25h19.346v23.523H28.572z"/></g><defs><path id="h" d="M49.539 10.771c2.863 0 5.19 2.079 5.19 5.001 0 2.94-2.327 5.001-5.19 5.001-2.863 0-5.171-2.061-5.171-5.001-.001-2.921 2.308-5.001 5.171-5.001m0 7.979c1.533 0 2.808-1.198 2.808-2.978 0-1.761-1.274-2.979-2.808-2.979-1.533 0-2.789 1.218-2.789 2.979 0 1.78 1.256 2.978 2.789 2.978"/></defs><clipPath id="i"><use xlink:href="#h" overflow="visible"/></clipPath><g clip-path="url(#i)"><defs><path id="j" d="M-.167 0h129.533v32H-.167z"/></defs><clipPath id="k"><use xlink:href="#j" overflow="visible"/></clipPath><path clip-path="url(#k)" fill="#e34644" d="M39.367 5.771h20.361v20.002H39.367z"/></g><defs><path id="l" d="M56.136 11.783c0-.506.258-.787.757-.787h.72c.499 0 .758.281.758.787v.58c0 .206-.037.431-.037.431h.037c.406-.806 1.44-2.022 3.343-2.022 2.087 0 3.288 1.104 3.288 3.634v5.356c0 .524-.258.786-.775.786h-.794c-.499 0-.775-.262-.775-.786v-4.87c0-1.161-.296-1.947-1.478-1.947-1.662 0-2.715 1.404-2.715 3.128v3.689c0 .524-.259.786-.757.786h-.813c-.499 0-.757-.262-.757-.786v-7.979z"/></defs><clipPath id="m"><use xlink:href="#l" overflow="visible"/></clipPath><g clip-path="url(#m)"><defs><path id="n" d="M-.167 0h129.533v32H-.167z"/></defs><clipPath id="o"><use xlink:href="#n" overflow="visible"/></clipPath><path clip-path="url(#o)" fill="#e34644" d="M51.136 5.771h18.866v19.776H51.136z"/></g><defs><path id="p" d="M71.716 14.648h.388v-.225c0-1.255-.794-1.686-1.755-1.686-.794 0-1.514.3-1.957.543-.463.206-.812.131-1.035-.318l-.184-.356c-.223-.431-.148-.805.295-1.049.609-.317 1.682-.786 3.084-.786 2.439 0 3.897 1.386 3.897 3.803v5.188c0 .524-.259.786-.775.786h-.628c-.499 0-.758-.262-.758-.786v-.375c0-.262.037-.411.037-.411h-.037s-.887 1.798-2.955 1.798c-1.717 0-3.121-1.124-3.121-2.866 0-2.791 3.399-3.26 5.504-3.26m-1.755 4.308c1.312 0 2.161-1.349 2.161-2.51v-.355h-.388c-1.183 0-3.195.188-3.195 1.61.001.637.48 1.255 1.422 1.255"/></defs><clipPath id="q"><use xlink:href="#p" overflow="visible"/></clipPath><g clip-path="url(#q)"><defs><path id="r" d="M-.167 0h129.533v32H-.167z"/></defs><clipPath id="s"><use xlink:href="#r" overflow="visible"/></clipPath><path clip-path="url(#s)" fill="#e34644" d="M61.212 5.771h18.237v20.002H61.212z"/></g><g><defs><path id="t" d="M76.357 11.783c0-.506.26-.787.758-.787h.721c.498 0 .775.281.775.787v.898c0 .356-.056.655-.056.655h.037c.37-1.142 1.403-2.416 2.733-2.416.518 0 .702.263.702.787v.73c0 .506-.296.786-.794.786-1.719 0-2.549 1.724-2.549 3.465v3.072c0 .524-.26.786-.758.786h-.812c-.498 0-.758-.262-.758-.786v-7.977z"/></defs><clipPath id="u"><use xlink:href="#t" overflow="visible"/></clipPath><g clip-path="url(#u)"><defs><path id="v" d="M-.167 0h129.533v32H-.167z"/></defs><clipPath id="w"><use xlink:href="#v" overflow="visible"/></clipPath><path clip-path="url(#w)" fill="#e34644" d="M71.357 5.921h15.671v19.627H71.357z"/></g></g><g><defs><path id="x" d="M87.103 10.959c2.641 0 4.783 2.116 4.783 4.851 0 2.791-2.143 4.964-4.783 4.964-2.642 0-4.783-2.173-4.783-4.964 0-2.735 2.141-4.851 4.783-4.851m0 9.046c2.197 0 3.971-1.816 3.971-4.195 0-2.322-1.773-4.083-3.971-4.083-2.198 0-3.971 1.761-3.971 4.083 0 2.378 1.773 4.195 3.971 4.195"/></defs><clipPath id="y"><use xlink:href="#x" overflow="visible"/></clipPath><g clip-path="url(#y)"><defs><path id="z" d="M-.167 0h129.533v32H-.167z"/></defs><clipPath id="A"><use xlink:href="#z" overflow="visible"/></clipPath><path clip-path="url(#A)" fill="#0097ce" d="M77.32 5.959h19.566v19.814H77.32z"/></g></g><g><defs><path id="B" d="M93.917 11.502c0-.206.111-.318.314-.318h.148c.203 0 .313.112.313.318v1.329c0 .432-.074.769-.074.769h.037c.313-.881 1.606-2.641 3.915-2.641 2.401 0 3.049 1.442 3.049 3.652v5.618c0 .206-.111.318-.314.318h-.148c-.203 0-.313-.112-.313-.318v-5.338c0-1.629-.204-3.165-2.272-3.165-2.104 0-3.878 1.761-3.878 4.158v4.345c0 .206-.11.318-.313.318h-.148c-.203 0-.314-.112-.314-.318v-8.727z"/></defs><clipPath id="C"><use xlink:href="#B" overflow="visible"/></clipPath><g clip-path="url(#C)"><defs><path id="D" d="M-.167 0h129.533v32H-.167z"/></defs><clipPath id="E"><use xlink:href="#D" overflow="visible"/></clipPath><path clip-path="url(#E)" fill="#0097ce" d="M88.917 5.959h17.703v19.589H88.917z"/></g></g><g><defs><path id="F" d="M104.538 7.756c0-.206.11-.318.313-.318H105c.203 0 .313.112.313.318v10.639c0 1.311.628 1.423 1.071 1.479.166.019.296.075.296.3v.112c0 .206-.074.337-.333.337-.535 0-1.81-.206-1.81-1.967v-10.9z"/></defs><clipPath id="G"><use xlink:href="#F" overflow="visible"/></clipPath><g clip-path="url(#G)"><defs><path id="H" d="M-.167 0h129.533v32H-.167z"/></defs><clipPath id="I"><use xlink:href="#H" overflow="visible"/></clipPath><path clip-path="url(#I)" fill="#0097ce" d="M99.538 2.438h12.143v23.186H99.538z"/></g></g><g><defs><path id="J" d="M108.152 8.486v-.73c0-.206.11-.318.314-.318h.295c.203 0 .314.112.314.318v.73c0 .206-.111.318-.314.318h-.295c-.204.001-.314-.112-.314-.318zm.074 3.016c0-.206.11-.318.313-.318h.147c.203 0 .314.112.314.318v8.728c0 .206-.111.318-.314.318h-.147c-.203 0-.313-.112-.313-.318v-8.728z"/></defs><clipPath id="K"><use xlink:href="#J" overflow="visible"/></clipPath><g clip-path="url(#K)"><defs><path id="L" d="M-.167 0h129.533v32H-.167z"/></defs><clipPath id="M"><use xlink:href="#L" overflow="visible"/></clipPath><path clip-path="url(#M)" fill="#0097ce" d="M103.152 2.438h10.924v23.11h-10.924z"/></g></g><g><defs><path id="N" d="M111.601 11.502c0-.206.111-.318.314-.318h.148c.203 0 .313.112.313.318v1.329c0 .432-.074.769-.074.769h.037c.313-.881 1.606-2.641 3.915-2.641 2.402 0 3.049 1.442 3.049 3.652v5.618c0 .206-.111.318-.314.318h-.148c-.203 0-.313-.112-.313-.318v-5.338c0-1.629-.203-3.165-2.272-3.165-2.105 0-3.878 1.761-3.878 4.158v4.345c0 .206-.11.318-.313.318h-.148c-.203 0-.314-.112-.314-.318v-8.727z"/></defs><clipPath id="O"><use xlink:href="#N" overflow="visible"/></clipPath><g clip-path="url(#O)"><defs><path id="P" d="M-.167 0h129.533v32H-.167z"/></defs><clipPath id="Q"><use xlink:href="#P" overflow="visible"/></clipPath><path clip-path="url(#Q)" fill="#0097ce" d="M106.601 5.959h17.703v19.589h-17.703z"/></g></g><g><defs><path id="R" d="M125.775 10.959c2.4 0 3.768 1.76 3.768 4.457 0 .207-.147.319-.332.319H122.1c0 2.715 1.811 4.27 3.953 4.27 1.274 0 2.197-.6 2.604-.955.166-.131.314-.112.426.057l.11.149c.093.131.073.3-.074.412a4.893 4.893 0 0 1-3.065 1.105c-2.604 0-4.766-1.911-4.766-4.889-.001-3.165 2.123-4.925 4.487-4.925zm2.955 4.046c-.092-2.286-1.441-3.315-2.974-3.315-1.699 0-3.269 1.123-3.603 3.315h6.577z"/></defs><clipPath id="S"><use xlink:href="#R" overflow="visible"/></clipPath><g clip-path="url(#S)"><defs><path id="T" d="M-.167 0h129.533v32H-.167z"/></defs><clipPath id="U"><use xlink:href="#T" overflow="visible"/></clipPath><path clip-path="url(#U)" fill="#0097ce" d="M116.287 5.959h18.256v19.814h-18.256z"/></g></g><g><defs><path id="V" d="M14.695 31.573a.958.958 0 0 1-.721-.33L.946 16.257a.462.462 0 0 1 0-.604L13.975.666c.182-.209.445-.33.721-.33s.538.121.721.33l12.731 14.645c.32.367.32.921 0 1.288L15.416 31.243a.96.96 0 0 1-.721.33zM1.884 15.954 14.65 30.64a.06.06 0 0 0 .09 0l12.731-14.645a.062.062 0 0 0 0-.081L14.741 1.27a.06.06 0 0 0-.09 0L1.884 15.954zM14.312.968h.002-.002z"/></defs><clipPath id="W"><use xlink:href="#V" overflow="visible"/></clipPath><g clip-path="url(#W)"><defs><path id="X" d="M-.167 0h129.533v32H-.167z"/></defs><clipPath id="Y"><use xlink:href="#X" overflow="visible"/></clipPath><path clip-path="url(#Y)" fill="#0097ce" d="M-4.167-4.664h37.553v41.237H-4.167z"/></g></g><g><defs><path id="Z" d="M1.793 31.475a.97.97 0 0 1-.96-.976V1.41c0-.35.178-.663.475-.84a.939.939 0 0 1 .955-.01l25.635 14.546c.307.176.49.492.49.848s-.183.673-.487.849l-.002.001L2.263 31.349a.944.944 0 0 1-.47.126zm.001-30.126a.057.057 0 0 0-.031.009c-.03.018-.03.044-.03.053V30.5c0 .009 0 .035.03.053a.053.053 0 0 0 .06 0l25.634-14.545c.008-.005.029-.018.029-.053s-.022-.048-.03-.053L1.824 1.356c-.005-.002-.015-.007-.03-.007zm25.885 15.056h.001-.001z"/></defs><clipPath id="aa"><use xlink:href="#Z" overflow="visible"/></clipPath><g clip-path="url(#aa)"><defs><path id="ab" d="M-.167 0h129.533v32H-.167z"/></defs><clipPath id="ac"><use xlink:href="#ab" overflow="visible"/></clipPath><path clip-path="url(#ac)" fill="#e34644" d="M-4.167-4.565h37.554v41.04H-4.167z"/></g></g></svg>
